<?xml version="1.0" encoding="UTF-8" standalone="no"?>
<!DOCTYPE svg PUBLIC "-//W3C//DTD SVG 1.1//EN"
 "http://www.w3.org/Graphics/SVG/1.1/DTD/svg11.dtd">
<!-- Generated by graphviz version 2.43.0 (0)
 -->
<!-- Title: G Pages: 1 -->
<svg width="780pt" height="305pt"
 viewBox="0.00 0.00 779.69 305.00" xmlns="http://www.w3.org/2000/svg" xmlns:xlink="http://www.w3.org/1999/xlink">
<g id="graph0" class="graph" transform="scale(1 1) rotate(0) translate(4 301)">
<title>G</title>
<polygon fill="white" stroke="transparent" points="-4,4 -4,-301 775.69,-301 775.69,4 -4,4"/>
<!-- Ceph Dashboard -->
<g id="node1" class="node">
<title>Ceph Dashboard</title>
<ellipse fill="none" stroke="black" cx="276.54" cy="-279" rx="69.59" ry="18"/>
<text text-anchor="middle" x="276.54" y="-275.3" font-family="Times,serif" font-size="14.00">Ceph Dashboard</text>
</g>
<!-- Notifications -->
<g id="node2" class="node">
<title>Notifications</title>
<ellipse fill="none" stroke="green" cx="56.54" cy="-192" rx="56.59" ry="18"/>
<text text-anchor="middle" x="56.54" y="-188.3" font-family="Times,serif" font-size="14.00">Notifications</text>
</g>
<!-- Ceph Dashboard&#45;&gt;Notifications -->
<g id="edge1" class="edge">
<title>Ceph Dashboard&#45;&gt;Notifications</title>
<path fill="none" stroke="green" d="M207.55,-276.32C150.84,-273.33 76.82,-265.15 57.54,-243 52.17,-236.83 50.62,-228.43 50.8,-220.27"/>
<polygon fill="green" stroke="green" points="54.29,-220.56 51.81,-210.26 47.33,-219.87 54.29,-220.56"/>
<text text-anchor="middle" x="110.54" y="-231.8" font-family="Times,serif" font-size="14.00">shows notifications</text>
</g>
<!-- Alertmanager -->
<g id="node3" class="node">
<title>Alertmanager</title>
<ellipse fill="none" stroke="black" cx="245.54" cy="-18" rx="59.59" ry="18"/>
<text text-anchor="middle" x="245.54" y="-14.3" font-family="Times,serif" font-size="14.00">Alertmanager</text>
</g>
<!-- Ceph Dashboard&#45;&gt;Alertmanager -->
<g id="edge2" class="edge">
<title>Ceph Dashboard&#45;&gt;Alertmanager</title>
<path fill="none" stroke="black" d="M256.83,-261.45C232.96,-240 194.06,-200.08 178.54,-156 163.99,-114.63 196.32,-69.44 220.96,-42.69"/>
<polygon fill="black" stroke="black" points="223.61,-44.98 227.98,-35.33 218.54,-40.15 223.61,-44.98"/>
<text text-anchor="middle" x="216.54" y="-144.8" font-family="Times,serif" font-size="14.00">silences alerts</text>
</g>
<!-- Grafana -->
<g id="node4" class="node">
<title>Grafana</title>
<ellipse fill="none" stroke="black" cx="369.54" cy="-192" rx="38.99" ry="18"/>
<text text-anchor="middle" x="369.54" y="-188.3" font-family="Times,serif" font-size="14.00">Grafana</text>
</g>
<!-- Ceph Dashboard&#45;&gt;Grafana -->
<g id="edge3" class="edge">
<title>Ceph Dashboard&#45;&gt;Grafana</title>
<path fill="none" stroke="black" d="M294.92,-261.21C309.25,-248.11 329.3,-229.78 345.01,-215.43"/>
<polygon fill="black" stroke="black" points="347.75,-217.66 352.77,-208.33 343.03,-212.49 347.75,-217.66"/>
<text text-anchor="middle" x="366.54" y="-231.8" font-family="Times,serif" font-size="14.00">shows graphs</text>
</g>
<!-- Prometheus -->
<g id="node5" class="node">
<title>Prometheus</title>
<ellipse fill="none" stroke="black" cx="453.54" cy="-105" rx="52.79" ry="18"/>
<text text-anchor="middle" x="453.54" y="-101.3" font-family="Times,serif" font-size="14.00">Prometheus</text>
</g>
<!-- Ceph Dashboard&#45;&gt;Prometheus -->
<g id="edge4" class="edge">
<title>Ceph Dashboard&#45;&gt;Prometheus</title>
<path fill="none" stroke="black" d="M339.12,-271.13C362.33,-266.18 387.79,-257.66 407.54,-243 444.1,-215.89 449.07,-199.77 461.54,-156 463.67,-148.56 463.38,-140.33 462.1,-132.73"/>
<polygon fill="black" stroke="black" points="465.49,-131.86 459.86,-122.88 458.67,-133.41 465.49,-131.86"/>
<text text-anchor="middle" x="480.54" y="-188.3" font-family="Times,serif" font-size="14.00">list alerts</text>
</g>
<!-- Alertmanager&#45;&gt;Ceph Dashboard -->
<g id="edge8" class="edge">
<title>Alertmanager&#45;&gt;Ceph Dashboard</title>
<path fill="none" stroke="black" d="M247.59,-36.06C252.85,-80.03 266.91,-197.54 273.3,-250.93"/>
<polygon fill="black" stroke="black" points="269.85,-251.49 274.51,-261.01 276.8,-250.66 269.85,-251.49"/>
<text text-anchor="middle" x="307.54" y="-144.8" font-family="Times,serif" font-size="14.00">distributes alerts</text>
</g>
<!-- Grafana&#45;&gt;Prometheus -->
<g id="edge9" class="edge">
<title>Grafana&#45;&gt;Prometheus</title>
<path fill="none" stroke="black" d="M373.72,-173.69C376.93,-163.26 382.25,-150.26 390.54,-141 396.43,-134.44 403.84,-128.84 411.5,-124.16"/>
<polygon fill="black" stroke="black" points="413.51,-127.05 420.52,-119.1 410.09,-120.94 413.51,-127.05"/>
<text text-anchor="middle" x="426.04" y="-144.8" font-family="Times,serif" font-size="14.00">requests data</text>
</g>
<!-- Prometheus&#45;&gt;Alertmanager -->
<g id="edge7" class="edge">
<title>Prometheus&#45;&gt;Alertmanager</title>
<path fill="none" stroke="black" d="M421.04,-90.72C385.55,-76.21 328.51,-52.91 289.15,-36.82"/>
<polygon fill="black" stroke="black" points="290.12,-33.44 279.54,-32.89 287.48,-39.92 290.12,-33.44"/>
<text text-anchor="middle" x="390.54" y="-57.8" font-family="Times,serif" font-size="14.00">fires alerts</text>
</g>
<!-- Node Exporter [1..n] -->
<g id="node6" class="node">
<title>Node Exporter [1..n]</title>
<ellipse fill="none" stroke="black" cx="686.54" cy="-18" rx="85.29" ry="18"/>
<text text-anchor="middle" x="686.54" y="-14.3" font-family="Times,serif" font-size="14.00">Node Exporter [1..n]</text>
</g>
<!-- Prometheus&#45;&gt;Node Exporter [1..n] -->
<g id="edge5" class="edge">
<title>Prometheus&#45;&gt;Node Exporter [1..n]</title>
<path fill="none" stroke="black" d="M488.18,-91.37C527.39,-77.06 591.62,-53.63 636.33,-37.32"/>
<polygon fill="black" stroke="black" points="637.64,-40.57 645.84,-33.85 635.24,-33.99 637.64,-40.57"/>
<text text-anchor="middle" x="617.04" y="-57.8" font-family="Times,serif" font-size="14.00">scrapes data</text>
</g>
<!-- Prometheus Manager Module [1] -->
<g id="node7" class="node">
<title>Prometheus Manager Module [1]</title>
<ellipse fill="none" stroke="black" cx="453.54" cy="-18" rx="129.98" ry="18"/>
<text text-anchor="middle" x="453.54" y="-14.3" font-family="Times,serif" font-size="14.00">Prometheus Manager Module [1]</text>
</g>
<!-- Prometheus&#45;&gt;Prometheus Manager Module [1] -->
<g id="edge6" class="edge">
<title>Prometheus&#45;&gt;Prometheus Manager Module [1]</title>
<path fill="none" stroke="black" d="M453.54,-86.8C453.54,-75.16 453.54,-59.55 453.54,-46.24"/>
<polygon fill="black" stroke="black" points="457.05,-46.18 453.54,-36.18 450.05,-46.18 457.05,-46.18"/>
<text text-anchor="middle" x="487.04" y="-57.8" font-family="Times,serif" font-size="14.00">scrapes data</text>
</g>
</g>
</svg>
