<?xml version="1.0" encoding="UTF-8" standalone="no"?>
<!DOCTYPE svg PUBLIC "-//W3C//DTD SVG 1.1//EN"
 "http://www.w3.org/Graphics/SVG/1.1/DTD/svg11.dtd">
<!-- Generated by graphviz version 2.43.0 (0)
 -->
<!-- Title: G Pages: 1 -->
<svg width="657pt" height="305pt"
 viewBox="0.00 0.00 657.41 305.00" xmlns="http://www.w3.org/2000/svg" xmlns:xlink="http://www.w3.org/1999/xlink">
<g id="graph0" class="graph" transform="scale(1 1) rotate(0) translate(4 301)">
<title>G</title>
<polygon fill="white" stroke="transparent" points="-4,4 -4,-301 653.41,-301 653.41,4 -4,4"/>
<!-- Ceph Dashboard -->
<g id="node1" class="node">
<title>Ceph Dashboard</title>
<ellipse fill="none" stroke="black" cx="159.26" cy="-279" rx="69.59" ry="18"/>
<text text-anchor="middle" x="159.26" y="-275.3" font-family="Times,serif" font-size="14.00">Ceph Dashboard</text>
</g>
<!-- Alertmanager -->
<g id="node2" class="node">
<title>Alertmanager</title>
<ellipse fill="none" stroke="black" cx="114.26" cy="-18" rx="59.59" ry="18"/>
<text text-anchor="middle" x="114.26" y="-14.3" font-family="Times,serif" font-size="14.00">Alertmanager</text>
</g>
<!-- Ceph Dashboard&#45;&gt;Alertmanager -->
<g id="edge1" class="edge">
<title>Ceph Dashboard&#45;&gt;Alertmanager</title>
<path fill="none" stroke="black" d="M124.2,-263.41C85.48,-245 25.75,-209.19 4.26,-156 -15.01,-108.28 38.91,-63.95 77.92,-39.27"/>
<polygon fill="black" stroke="black" points="79.78,-42.23 86.47,-34.01 76.12,-36.26 79.78,-42.23"/>
<text text-anchor="middle" x="42.26" y="-144.8" font-family="Times,serif" font-size="14.00">silences alerts</text>
</g>
<!-- Grafana -->
<g id="node3" class="node">
<title>Grafana</title>
<ellipse fill="none" stroke="green" cx="216.26" cy="-192" rx="38.99" ry="18"/>
<text text-anchor="middle" x="216.26" y="-188.3" font-family="Times,serif" font-size="14.00">Grafana</text>
</g>
<!-- Ceph Dashboard&#45;&gt;Grafana -->
<g id="edge2" class="edge">
<title>Ceph Dashboard&#45;&gt;Grafana</title>
<path fill="none" stroke="black" d="M170.53,-261.21C178.78,-248.9 190.11,-232 199.44,-218.09"/>
<polygon fill="black" stroke="black" points="202.56,-219.72 205.22,-209.47 196.74,-215.83 202.56,-219.72"/>
<text text-anchor="middle" x="228.26" y="-231.8" font-family="Times,serif" font-size="14.00">shows graphs</text>
</g>
<!-- Prometheus 1 -->
<g id="node4" class="node">
<title>Prometheus 1</title>
<ellipse fill="none" stroke="orange" cx="396.26" cy="-105" rx="59.59" ry="18"/>
<text text-anchor="middle" x="396.26" y="-101.3" font-family="Times,serif" font-size="14.00">Prometheus 1</text>
</g>
<!-- Ceph Dashboard&#45;&gt;Prometheus 1 -->
<g id="edge3" class="edge">
<title>Ceph Dashboard&#45;&gt;Prometheus 1</title>
<path fill="none" stroke="black" d="M208.64,-266.26C228.14,-260.61 250.35,-252.9 269.26,-243 325.42,-213.61 346.8,-208.53 382.26,-156 386.82,-149.25 389.91,-141.03 391.99,-133.22"/>
<polygon fill="black" stroke="black" points="395.43,-133.88 394.19,-123.36 388.6,-132.35 395.43,-133.88"/>
<text text-anchor="middle" x="394.26" y="-188.3" font-family="Times,serif" font-size="14.00">list alerts</text>
</g>
<!-- Alertmanager&#45;&gt;Ceph Dashboard -->
<g id="edge10" class="edge">
<title>Alertmanager&#45;&gt;Ceph Dashboard</title>
<path fill="none" stroke="black" d="M113.98,-36.02C113.82,-62.08 114.66,-113.31 122.26,-156 128.25,-189.56 140.42,-226.89 149.17,-251.31"/>
<polygon fill="black" stroke="black" points="145.97,-252.75 152.69,-260.94 152.55,-250.35 145.97,-252.75"/>
<text text-anchor="middle" x="167.26" y="-144.8" font-family="Times,serif" font-size="14.00">distributes alerts</text>
</g>
<!-- Grafana&#45;&gt;Prometheus 1 -->
<g id="edge11" class="edge">
<title>Grafana&#45;&gt;Prometheus 1</title>
<path fill="none" stroke="green" d="M243.35,-178.82C257.02,-172.42 273.75,-164.22 288.26,-156 298.88,-149.99 300.46,-146.68 311.26,-141 323.53,-134.55 337.26,-128.44 350.05,-123.2"/>
<polygon fill="green" stroke="green" points="351.63,-126.33 359.6,-119.36 349.02,-119.84 351.63,-126.33"/>
<text text-anchor="middle" x="346.76" y="-144.8" font-family="Times,serif" font-size="14.00">requests data</text>
</g>
<!-- Prometheus 2 -->
<g id="node5" class="node">
<title>Prometheus 2</title>
<ellipse fill="none" stroke="orange" cx="216.26" cy="-105" rx="59.59" ry="18"/>
<text text-anchor="middle" x="216.26" y="-101.3" font-family="Times,serif" font-size="14.00">Prometheus 2</text>
</g>
<!-- Grafana&#45;&gt;Prometheus 2 -->
<g id="edge12" class="edge">
<title>Grafana&#45;&gt;Prometheus 2</title>
<path fill="none" stroke="green" d="M216.26,-173.8C216.26,-162.16 216.26,-146.55 216.26,-133.24"/>
<polygon fill="green" stroke="green" points="219.76,-133.18 216.26,-123.18 212.76,-133.18 219.76,-133.18"/>
<text text-anchor="middle" x="251.76" y="-144.8" font-family="Times,serif" font-size="14.00">requests data</text>
</g>
<!-- Prometheus 1&#45;&gt;Alertmanager -->
<g id="edge6" class="edge">
<title>Prometheus 1&#45;&gt;Alertmanager</title>
<path fill="none" stroke="red" d="M393.31,-86.82C390.43,-75.6 384.87,-61.67 374.26,-54 340.81,-29.78 230.04,-42.58 189.26,-36 182.62,-34.93 175.69,-33.62 168.84,-32.21"/>
<polygon fill="red" stroke="red" points="169.41,-28.75 158.9,-30.09 167.95,-35.6 169.41,-28.75"/>
<text text-anchor="middle" x="416.26" y="-57.8" font-family="Times,serif" font-size="14.00">fires alerts</text>
</g>
<!-- Node Exporter [1..n] -->
<g id="node6" class="node">
<title>Node Exporter [1..n]</title>
<ellipse fill="none" stroke="black" cx="564.26" cy="-18" rx="85.29" ry="18"/>
<text text-anchor="middle" x="564.26" y="-14.3" font-family="Times,serif" font-size="14.00">Node Exporter [1..n]</text>
</g>
<!-- Prometheus 1&#45;&gt;Node Exporter [1..n] -->
<g id="edge4" class="edge">
<title>Prometheus 1&#45;&gt;Node Exporter [1..n]</title>
<path fill="none" stroke="orange" d="M452.03,-98.19C477.36,-93.43 506.64,-84.77 529.26,-69 538.04,-62.88 545.34,-53.82 550.95,-45.08"/>
<polygon fill="orange" stroke="orange" points="554.11,-46.62 556.2,-36.23 548.09,-43.05 554.11,-46.62"/>
<text text-anchor="middle" x="576.76" y="-57.8" font-family="Times,serif" font-size="14.00">scrapes data</text>
</g>
<!-- Prometheus Manager Module [1] -->
<g id="node7" class="node">
<title>Prometheus Manager Module [1]</title>
<ellipse fill="none" stroke="black" cx="328.26" cy="-18" rx="129.98" ry="18"/>
<text text-anchor="middle" x="328.26" y="-14.3" font-family="Times,serif" font-size="14.00">Prometheus Manager Module [1]</text>
</g>
<!-- Prometheus 1&#45;&gt;Prometheus Manager Module [1] -->
<g id="edge5" class="edge">
<title>Prometheus 1&#45;&gt;Prometheus Manager Module [1]</title>
<path fill="none" stroke="orange" d="M431.53,-90.3C449.74,-81.15 466.08,-68.21 455.26,-54 449.51,-46.45 434.13,-40.11 415.97,-35"/>
<polygon fill="orange" stroke="orange" points="416.82,-31.6 406.26,-32.44 415.04,-38.37 416.82,-31.6"/>
<text text-anchor="middle" x="491.76" y="-57.8" font-family="Times,serif" font-size="14.00">scrapes data</text>
</g>
<!-- Prometheus 2&#45;&gt;Alertmanager -->
<g id="edge9" class="edge">
<title>Prometheus 2&#45;&gt;Alertmanager</title>
<path fill="none" stroke="red" d="M173.65,-92.12C160.39,-86.77 146.57,-79.28 136.26,-69 129.8,-62.55 125.08,-53.87 121.72,-45.56"/>
<polygon fill="red" stroke="red" points="125.01,-44.38 118.36,-36.13 118.42,-46.72 125.01,-44.38"/>
<text text-anchor="middle" x="165.26" y="-57.8" font-family="Times,serif" font-size="14.00">fires alerts</text>
</g>
<!-- Prometheus 2&#45;&gt;Node Exporter [1..n] -->
<g id="edge7" class="edge">
<title>Prometheus 2&#45;&gt;Node Exporter [1..n]</title>
<path fill="none" stroke="orange" d="M247.43,-89.54C259.25,-83.65 272.65,-76.47 284.26,-69 293.31,-63.18 293.31,-58.08 303.26,-54 371.12,-26.2 394.67,-46.33 467.26,-36 475.48,-34.83 484.06,-33.49 492.58,-32.1"/>
<polygon fill="orange" stroke="orange" points="493.24,-35.53 502.52,-30.43 492.08,-28.63 493.24,-35.53"/>
<text text-anchor="middle" x="336.76" y="-57.8" font-family="Times,serif" font-size="14.00">scrapes data</text>
</g>
<!-- Prometheus 2&#45;&gt;Prometheus Manager Module [1] -->
<g id="edge8" class="edge">
<title>Prometheus 2&#45;&gt;Prometheus Manager Module [1]</title>
<path fill="none" stroke="orange" d="M211.91,-86.63C210.34,-76.18 210.4,-63.17 217.26,-54 222.53,-46.97 229.21,-41.31 236.67,-36.77"/>
<polygon fill="orange" stroke="orange" points="238.57,-39.73 245.75,-31.94 235.28,-33.55 238.57,-39.73"/>
<text text-anchor="middle" x="250.76" y="-57.8" font-family="Times,serif" font-size="14.00">scrapes data</text>
</g>
</g>
</svg>
