<?xml version="1.0" encoding="UTF-8" standalone="no"?>
<!DOCTYPE svg PUBLIC "-//W3C//DTD SVG 1.1//EN"
 "http://www.w3.org/Graphics/SVG/1.1/DTD/svg11.dtd">
<!-- Generated by graphviz version 2.43.0 (0)
 -->
<!-- Title: G Pages: 1 -->
<svg width="325pt" height="291pt"
 viewBox="0.00 0.00 325.04 291.00" xmlns="http://www.w3.org/2000/svg" xmlns:xlink="http://www.w3.org/1999/xlink">
<g id="graph0" class="graph" transform="scale(1 1) rotate(0) translate(4 287)">
<title>G</title>
<polygon fill="white" stroke="transparent" points="-4,4 -4,-287 321.04,-287 321.04,4 -4,4"/>
<!-- Ceph Dashboard -->
<g id="node1" class="node">
<title>Ceph Dashboard</title>
<ellipse fill="none" stroke="black" cx="103.4" cy="-265" rx="69.59" ry="18"/>
<text text-anchor="middle" x="103.4" y="-261.3" font-family="Times,serif" font-size="14.00">Ceph Dashboard</text>
</g>
<!-- Alertmanager 1 -->
<g id="node2" class="node">
<title>Alertmanager 1</title>
<ellipse fill="none" stroke="black" cx="126.4" cy="-91" rx="66.09" ry="18"/>
<text text-anchor="middle" x="126.4" y="-87.3" font-family="Times,serif" font-size="14.00">Alertmanager 1</text>
</g>
<!-- Ceph Dashboard&#45;&gt;Alertmanager 1 -->
<g id="edge1" class="edge">
<title>Ceph Dashboard&#45;&gt;Alertmanager 1</title>
<path fill="none" stroke="black" d="M70.44,-249C34.3,-230.32 -15.9,-196.4 5.4,-160 19.97,-135.1 47.37,-118.62 72.41,-108.13"/>
<polygon fill="black" stroke="black" points="73.85,-111.32 81.87,-104.4 71.28,-104.81 73.85,-111.32"/>
<text text-anchor="middle" x="43.4" y="-174.3" font-family="Times,serif" font-size="14.00">silences alerts</text>
</g>
<!-- Prometheus -->
<g id="node3" class="node">
<title>Prometheus</title>
<ellipse fill="none" stroke="black" cx="264.4" cy="-178" rx="52.79" ry="18"/>
<text text-anchor="middle" x="264.4" y="-174.3" font-family="Times,serif" font-size="14.00">Prometheus</text>
</g>
<!-- Ceph Dashboard&#45;&gt;Prometheus -->
<g id="edge2" class="edge">
<title>Ceph Dashboard&#45;&gt;Prometheus</title>
<path fill="none" stroke="black" d="M132.55,-248.61C159.37,-234.45 199.24,-213.4 228.11,-198.16"/>
<polygon fill="black" stroke="black" points="229.86,-201.19 237.07,-193.43 226.59,-195 229.86,-201.19"/>
<text text-anchor="middle" x="218.4" y="-217.8" font-family="Times,serif" font-size="14.00">list alerts</text>
</g>
<!-- Alertmanager 1&#45;&gt;Ceph Dashboard -->
<g id="edge5" class="edge">
<title>Alertmanager 1&#45;&gt;Ceph Dashboard</title>
<path fill="none" stroke="black" d="M122.27,-109.23C119.13,-122.92 114.93,-142.59 112.4,-160 108.61,-185.96 106.23,-215.82 104.88,-236.86"/>
<polygon fill="black" stroke="black" points="101.37,-236.8 104.26,-247 108.36,-237.23 101.37,-236.8"/>
<text text-anchor="middle" x="157.4" y="-174.3" font-family="Times,serif" font-size="14.00">distributes alerts</text>
</g>
<!-- Alertmanager 2 -->
<g id="node4" class="node">
<title>Alertmanager 2</title>
<ellipse fill="none" stroke="red" cx="126.4" cy="-18" rx="66.09" ry="18"/>
<text text-anchor="middle" x="126.4" y="-14.3" font-family="Times,serif" font-size="14.00">Alertmanager 2</text>
</g>
<!-- Alertmanager 1&#45;&gt;Alertmanager 2 -->
<g id="edge6" class="edge">
<title>Alertmanager 1&#45;&gt;Alertmanager 2</title>
<path fill="none" stroke="red" d="M120.52,-72.81C119.68,-64.79 119.45,-55.05 119.82,-46.07"/>
<polygon fill="red" stroke="red" points="123.32,-46.25 120.54,-36.03 116.33,-45.75 123.32,-46.25"/>
</g>
<!-- Prometheus&#45;&gt;Alertmanager 1 -->
<g id="edge3" class="edge">
<title>Prometheus&#45;&gt;Alertmanager 1</title>
<path fill="none" stroke="orange" d="M226.9,-165.26C211.24,-159.48 193.27,-151.66 178.4,-142 167.4,-134.86 156.7,-125.19 147.9,-116.27"/>
<polygon fill="orange" stroke="orange" points="150.42,-113.84 140.98,-109.01 145.35,-118.67 150.42,-113.84"/>
<text text-anchor="middle" x="207.4" y="-130.8" font-family="Times,serif" font-size="14.00">fires alerts</text>
</g>
<!-- Prometheus&#45;&gt;Alertmanager 2 -->
<g id="edge4" class="edge">
<title>Prometheus&#45;&gt;Alertmanager 2</title>
<path fill="none" stroke="orange" d="M255.33,-160.18C249.98,-150.4 242.98,-137.9 236.4,-127 221.62,-102.51 221.12,-93.71 201.4,-73 189.69,-60.7 174.85,-49.35 161.46,-40.25"/>
<polygon fill="orange" stroke="orange" points="163.19,-37.2 152.92,-34.62 159.34,-43.05 163.19,-37.2"/>
<text text-anchor="middle" x="254.4" y="-87.3" font-family="Times,serif" font-size="14.00">fires alerts</text>
</g>
<!-- Alertmanager 2&#45;&gt;Alertmanager 1 -->
<g id="edge7" class="edge">
<title>Alertmanager 2&#45;&gt;Alertmanager 1</title>
<path fill="none" stroke="red" d="M132.26,-36.03C133.11,-44.03 133.35,-53.77 132.98,-62.75"/>
<polygon fill="red" stroke="red" points="129.49,-62.59 132.28,-72.81 136.47,-63.08 129.49,-62.59"/>
</g>
</g>
</svg>
